/* XPM */
static char *_c0498a4959d4717e2970de476eb89ee3Tj4UFilGWtJFjFi[] = {
/* columns rows colors chars-per-pixel */
"32 32 85 1 ",
"  c None",
". c black",
"X c #000001",
"o c #010101",
"O c #020102",
"+ c #020202",
"@ c gray1",
"# c #030402",
"$ c #040501",
"% c #050601",
"& c #040404",
"* c gray2",
"= c #060606",
"- c #070707",
"; c #080B02",
": c #090909",
"> c #09080A",
", c gray4",
"< c #0A0A0B",
"1 c #0B0B0B",
"2 c #0C0C0C",
"3 c gray5",
"4 c #0E1303",
"5 c #0F1404",
"6 c #171F06",
"7 c #111111",
"8 c #131313",
"9 c #151515",
"0 c #151517",
"q c #161517",
"w c #161616",
"e c gray9",
"r c #171816",
"t c #1C1F14",
"y c #171618",
"u c #181719",
"i c #18171A",
"p c #191919",
"a c #18181A",
"s c #19191A",
"d c #1A191A",
"f c gray10",
"g c #1B1B1B",
"h c #1D1F19",
"j c #232F09",
"k c #212A0C",
"l c #28350A",
"z c #29350D",
"x c #242B17",
"c c #262E14",
"v c #222519",
"b c #2F3C11",
"n c #2F3A17",
"m c #2B331C",
"M c #313F11",
"N c #38461D",
"B c #3E4E1E",
"V c #41531E",
"C c #44571F",
"Z c #465B1F",
"A c #4B6613",
"S c #526D1F",
"D c #567616",
"F c #516A20",
"G c #557020",
"H c #5F8218",
"J c #719C1D",
"K c #739F1D",
"L c #77A323",
"P c #83B524",
"I c #89BE23",
"U c #8FC625",
"Y c #92CA25",
"T c #92CA26",
"R c #93CB26",
"E c #93CC26",
"W c #94CC26",
"Q c #94CD26",
"! c #94CE26",
"~ c #95CF26",
"^ c #96D027",
"/ c #97D127",
"( c #98D327",
") c #99D427",
"_ c #9DD927",
/* pixels */
"                                ",
"                                ",
"           ..........           ",
"         ...        ...         ",
"       ..             ...       ",
"      ..                ..      ",
"     ..                  ..     ",
"    ..                    ..    ",
"    .                      .    ",
"   ........   ^!!!(   .......   ",
"   .======.4HI    UJj.@=====.   ",
"  .=pppppytM5$     ;zcyppppp>.  ",
"  .      mCv>.    .=rBN      .  ",
"  .       Lpw=.   .7pF^      .  ",
" ..      ^  p3....>pp !      .  ",
" ..      !  g7.@..3p  R      .  ",
" ..      !  g7.8p=>p  R      .. ",
" ..      ^  g3.wp=:p  R      .  ",
"  .      _Ppr=.  ..8i )      .  ",
"  .      ZFh>.    .=yVG      .  ",
"  . gpppppxb$.     .kMppppgg>.  ",
"  ..>331>>.6AK     Dz@=>312>=   ",
"   ........  )ERRE^  ........   ",
"   ..                      .    ",
"    ..                    ..    ",
"     .                   ..     ",
"      ..                ..      ",
"       ..              ..       ",
"        ...          ...        ",
"          ............          ",
"              ....              ",
"                                "
};
