/* XPM */
static char *e8f57a97f2754f44cb46bd90afda49e1VroZeE7WPKrrJXkp[] = {
/* columns rows colors chars-per-pixel */
"64 64 161 2 ",
"   c None",
".  c black",
"X  c #010100",
"o  c #000001",
"O  c #010101",
"+  c #010200",
"@  c #020301",
"#  c #010102",
"$  c #020202",
"%  c gray1",
"&  c #040404",
"*  c gray2",
"=  c #060606",
"-  c #070707",
";  c #060801",
":  c #0A0D02",
">  c gray3",
",  c #080809",
"<  c #090909",
"1  c #08080A",
"2  c gray4",
"3  c #0B0B0B",
"4  c gray5",
"5  c #0E0D0F",
"6  c gray6",
"7  c #0C1003",
"8  c #111608",
"9  c #11120F",
"0  c #171C0A",
"q  c #101010",
"w  c #111111",
"e  c #121113",
"r  c gray7",
"t  c #131313",
"y  c gray8",
"u  c #151515",
"i  c #151517",
"p  c #161616",
"a  c gray9",
"s  c #181B11",
"d  c #17161A",
"f  c #17171A",
"g  c #18171A",
"h  c #181818",
"j  c #181819",
"k  c #191919",
"l  c #18181A",
"z  c #19181A",
"x  c #19191A",
"c  c #1A191A",
"v  c gray10",
"b  c #1A1B1A",
"n  c #1B1B1B",
"m  c #1B1C1A",
"M  c #1C1D1A",
"N  c #192106",
"B  c #1B2407",
"V  c #1C2507",
"C  c #1E2808",
"Z  c #1E201A",
"A  c #1E201B",
"S  c #1F221A",
"D  c #1F221B",
"F  c #212C08",
"G  c #25300A",
"H  c #26330A",
"J  c #2B390B",
"K  c #2B3B0B",
"L  c #29301C",
"P  c #29311C",
"I  c #2B321C",
"U  c #2E371C",
"Y  c #313F11",
"T  c #323F14",
"R  c #303B1D",
"E  c #31410D",
"W  c #3B4D0F",
"Q  c #38461D",
"!  c #3B4A1D",
"~  c #3F4F1E",
"^  c #3D5410",
"/  c #455A12",
"(  c #455B12",
")  c #43541E",
"_  c #485B1D",
"`  c #495D1F",
"'  c #496013",
"]  c #4A6214",
"[  c #4E6914",
"{  c #4C611F",
"}  c #4C651E",
"|  c #506814",
" . c #526B14",
".. c #556F16",
"X. c #537015",
"o. c #567216",
"O. c #577216",
"+. c #567616",
"@. c #567716",
"#. c #5C771F",
"$. c #4E6720",
"%. c #556E20",
"&. c #587120",
"*. c #587320",
"=. c #597421",
"-. c #5B7521",
";. c #5C7721",
":. c #5D7C21",
">. c #5E7E20",
",. c #6D981C",
"<. c #628221",
"1. c #6F9821",
"2. c #709922",
"3. c #7EAD20",
"4. c #81B321",
"5. c #87BC24",
"6. c #89BE23",
"7. c #88BA25",
"8. c #8BC124",
"9. c #8CC124",
"0. c #8CC224",
"q. c #8DC324",
"w. c #8DC424",
"e. c #8EC424",
"r. c #8EC524",
"t. c #8FC524",
"y. c #8FC525",
"u. c #8FC625",
"i. c #8FC725",
"p. c #90C725",
"a. c #90C626",
"s. c #91C825",
"d. c #91C925",
"f. c #91CA25",
"g. c #92CA26",
"h. c #92CB26",
"j. c #93CB26",
"k. c #93CC26",
"l. c #94CC26",
"z. c #94CD26",
"x. c #95CD26",
"c. c #94CD27",
"v. c #95CE26",
"b. c #95CF26",
"n. c #96CF26",
"m. c #96D026",
"M. c #97D127",
"N. c #98D227",
"B. c #98D327",
"V. c #99D427",
"C. c #99D527",
"Z. c #9AD527",
"A. c #9BD627",
"S. c #9BD628",
"D. c #9BD728",
"F. c #9CD728",
"G. c #9CD828",
"H. c #9CD928",
"J. c #9DD928",
"K. c #9EDB29",
"L. c #9FDD28",
/* pixels */
"                                                                                                                                ",
"                                                                                                                                ",
"                                                                                                                                ",
"                                                        . . . . . . . .                                                         ",
"                                              . . . . . . . . . . . . . . . . .                                                 ",
"                                          . . . . . . . . . . . . . . . . . . . . . .                                           ",
"                                      . . . . . .                             . . . . . .                                       ",
"                                  . . . . .                                         . . . . .                                   ",
"                              . . . . .                                                 . . . . .                               ",
"                            . . . .                                                         . . . .                             ",
"                          . . .                                                               . . . .                           ",
"                        . . .                                                                     . . .                         ",
"                      . . .                                                                         . . .                       ",
"                    . . .                                                                             . . .                     ",
"                  . . .                                                                                 . . .                   ",
"                . . .                                                                                     . . .                 ",
"              . . .                                                                                       . . .                 ",
"              . . .                                                                                         . . .               ",
"            . . . . . . . . . . . . . .                   G.G.D.D.D.D.G.                  . . . . . . . . . . . . .             ",
"            . . . . . . . . . . . . . . . . .       G.C.z.k.p.p.y.y.g.k.M.D.G.      . . . . . . . . . . . . . . . .             ",
"          . . . . . . . . . . . . . . . . . . . @.G.z.y.0.8.          8.0.a.N.c.F . . . . . . . . . . . . . . . . .             ",
"          . .   2 2 2 2 2 2 2 2 2 2 2 % . . . V o.@.4.                      ,.o.' : . . . = 2 2 2 2 2 2 2 2 2 2 = . .           ",
"        . . .   v v v v v v v v v v v f r 2 G O.N . @                       # . E  .8 4 i v v v v v v v v v v v r . .           ",
"        . . .   v v v v v v v v v v v v v U ;.0 . . . .                   . . # # E &.A v v v v v v v v v v v v v . . .         ",
"        . .     v v v v v v v v v v v g S ;.I i 2 . . .                 . . . . r f ) ` f f v v v v v v v v v v     . .         ",
"        . .                           $.<.~ f v i = . . .               . . . r v v v #.:.                          . .         ",
"      . . .                           L.g.} g v v i . . .             . . . 2 v v v M 2.C.                          . .         ",
"      . . .                           C.y.    v v v 4 . . .           . . . i v v v     g.G.                        . . .       ",
"      . .                           G.m.0.    v v v y . . .         . . . 2 v v v       y.C.                        . . .       ",
"      . .                           G.g.        v v h & . . . . . . . . . 9 v v v       0.N.                          . .       ",
"      . .                           D.p.        v v v 2 . . . . . . . . . r v v v       0.z.G.                        . .       ",
"      . .                           D.y.        v v v 3 . . . = % = . . . i v v         0.g.G.                        . .       ",
"      . .                           D.y.        v v v 2 . . r v a a 2 . . i v v         8.g.G.                        . .       ",
"      . .                           D.y.        v v v - . . r M v v 2 . . i v v         0.z.G.                        . .       ",
"      . .                           G.g.        v v v = . . y v v v 2 . . 9 v v v       0.m.                          . .       ",
"      . .                           G.c.8.      v v i . . . r v v v 2 . . > v v v       0.N.                        . . .       ",
"      . .                             N.8.    n v v 3 . . .           . . . i v v v     y.G.                        . . .       ",
"      . . .                           F.g.2.d n v i . . . .           . . . 2 v v v S 5.m.G.                        . . .       ",
"      . . .                           c.7.! f v h 2 . . .             . . . . r n v v :.y.                          . .         ",
"        . .                           S Q ..v v 2 . . . .               . . . & e f I =.I M                         . .         ",
"        . .     v v v v v v v v v v v v v ` _ 2 . . . .                   . . . . s -.R f v v v v v v v v v v n   . . .         ",
"        . . .   M m v v v v v v v n v v i 9 ] W . . .                     . . . 7 | E e v n n v v v v v v v v M i . .           ",
"          . .   i y y i y i y i e t r 2 = . & ( / V ^                       K C ..J . # - 4 r y y y i y y y i y 3 . .           ",
"          . . . . . . . . . . . . . . . . . . . [ 6.p.0.                  t.y.3.H . . . . . . # . . % . . . . . . . .           ",
"          . . . . . . . . . . . . . . . . . . .   G.D.z.p.0.0.0.0.0.0.t.g.z.G.G.  . . . . . . . . . . . . . . . . .             ",
"            . . . . . . . . . . . . . . .             G.F.C.N.m.z.z.N.F.G.G.          . . . . . . . . . . . . . . .             ",
"              . . .                                                                                         . . .               ",
"              . . .                                                                                         . . .               ",
"                . . .                                                                                     . . .                 ",
"                . . .                                                                                   . . .                   ",
"                  . . .                                                                               . . .                     ",
"                    . . .                                                                           . . . .                     ",
"                      . . .                                                                       . . . .                       ",
"                        . . . .                                                                 . . . .                         ",
"                          . . . .                                                             . . . .                           ",
"                            . . . . .                                                     . . . .                               ",
"                                . . . . .                                             . . . . .                                 ",
"                                    . . . . .                                     . . . . .                                     ",
"                                        . . . . . . .                     . . . . . . .                                         ",
"                                            . . . . . . . . . . . . . . . . . . . .                                             ",
"                                                  . . . . . . . . . . . . .                                                     ",
"                                                                                                                                ",
"                                                                                                                                ",
"                                                                                                                                "
};
