/* XPM */
static char *_4b68887768249f8a5e45893299c1725NDcqhbEpdBHdHkvn[] = {
/* columns rows colors chars-per-pixel */
"16 16 32 1 ",
"  c None",
". c black",
"X c #010101",
"o c gray1",
"O c #040404",
"+ c #050408",
"@ c #070609",
"# c #08070A",
"$ c gray4",
"% c #0C0C0C",
"& c #0D0D0E",
"* c #0E0E0E",
"= c gray6",
"- c #10100F",
"; c #11110F",
": c #191F0C",
"> c #0F0F10",
", c #100F12",
"< c #101010",
"1 c #111012",
"2 c #1B220D",
"3 c #1D250C",
"4 c #1E260D",
"5 c #2F3A1A",
"6 c #313D1A",
"7 c #2F400D",
"8 c #33460D",
"9 c #3A491C",
"0 c #3E4F1D",
"q c #3C5210",
"w c #435C11",
"e c #516A20",
/* pixels */
"                ",
"                ",
"                ",
"                ",
"  o          o  ",
" o===:q  w3===O ",
"     9#  +5e    ",
"      1oo>      ",
"      ,$==      ",
"     0+  +6     ",
" o==127  83-==O ",
"  ooo      ooo  ",
"  o             ",
"   o        o   ",
"                ",
"                "
};
